<?xml version="1.0" encoding="utf-8" ?>
<svg baseProfile="tiny" height="1024" version="1.2" width="1024" xmlns="http://www.w3.org/2000/svg" xmlns:ev="http://www.w3.org/2001/xml-events" xmlns:xlink="http://www.w3.org/1999/xlink"><defs /><path d="M 752 97 L 751 98 L 741 98 L 740 99 L 734 99 L 733 100 L 728 100 L 727 101 L 723 101 L 722 102 L 718 102 L 717 103 L 715 103 L 714 104 L 711 104 L 710 105 L 707 105 L 706 106 L 704 106 L 703 107 L 701 107 L 700 108 L 698 108 L 697 109 L 696 109 L 695 110 L 693 110 L 692 111 L 691 111 L 690 112 L 689 112 L 688 113 L 687 113 L 686 114 L 685 114 L 683 116 L 682 116 L 679 119 L 678 119 L 666 131 L 666 132 L 663 135 L 663 136 L 659 140 L 659 141 L 656 144 L 656 145 L 654 147 L 654 148 L 652 150 L 652 151 L 650 153 L 650 154 L 648 156 L 648 157 L 647 158 L 647 159 L 646 160 L 646 161 L 644 163 L 644 164 L 643 165 L 643 166 L 641 168 L 641 169 L 640 170 L 640 171 L 639 172 L 639 173 L 638 174 L 638 175 L 637 176 L 637 178 L 636 179 L 636 180 L 635 181 L 635 182 L 634 183 L 634 185 L 633 186 L 633 187 L 632 188 L 632 189 L 631 190 L 631 192 L 630 193 L 630 194 L 629 195 L 629 197 L 628 198 L 628 200 L 627 201 L 627 202 L 626 203 L 626 205 L 625 206 L 625 207 L 624 208 L 624 210 L 623 211 L 623 213 L 622 214 L 622 217 L 621 218 L 621 221 L 620 222 L 620 225 L 619 226 L 619 229 L 618 230 L 618 233 L 617 234 L 617 237 L 616 238 L 616 242 L 615 243 L 615 247 L 614 248 L 614 256 L 613 257 L 613 268 L 612 269 L 612 285 L 611 286 L 611 304 L 607 308 L 600 308 L 596 304 L 596 301 L 595 300 L 595 262 L 596 261 L 596 252 L 597 251 L 597 244 L 598 243 L 598 238 L 599 237 L 599 232 L 600 231 L 600 228 L 601 227 L 601 224 L 602 223 L 602 221 L 603 220 L 603 217 L 604 216 L 604 214 L 605 213 L 605 211 L 606 210 L 606 208 L 607 207 L 607 205 L 608 204 L 608 203 L 609 202 L 609 200 L 610 199 L 610 197 L 611 196 L 611 195 L 612 194 L 612 192 L 613 191 L 613 190 L 614 189 L 614 187 L 615 186 L 615 185 L 616 184 L 616 183 L 617 182 L 617 181 L 618 180 L 618 178 L 620 176 L 620 175 L 621 174 L 621 173 L 622 172 L 622 171 L 623 170 L 623 169 L 624 168 L 624 167 L 626 165 L 626 164 L 627 163 L 627 162 L 628 161 L 628 160 L 629 159 L 629 158 L 631 156 L 631 155 L 632 154 L 632 153 L 634 151 L 634 150 L 636 148 L 636 147 L 638 145 L 638 144 L 640 142 L 640 141 L 642 139 L 642 138 L 644 136 L 644 135 L 648 131 L 648 130 L 650 128 L 650 127 L 653 124 L 653 123 L 654 122 L 654 121 L 655 120 L 655 119 L 653 117 L 652 117 L 651 116 L 648 116 L 647 117 L 645 117 L 644 118 L 642 118 L 641 119 L 640 119 L 639 120 L 638 120 L 637 121 L 636 121 L 635 122 L 634 122 L 633 123 L 632 123 L 631 124 L 630 124 L 629 125 L 628 125 L 626 127 L 625 127 L 624 128 L 623 128 L 620 131 L 619 131 L 617 133 L 616 133 L 614 135 L 613 135 L 610 138 L 609 138 L 605 142 L 604 142 L 598 148 L 597 148 L 585 160 L 585 161 L 580 166 L 580 167 L 577 170 L 577 171 L 574 174 L 574 175 L 572 177 L 572 178 L 570 180 L 570 181 L 568 183 L 568 184 L 566 186 L 566 187 L 564 189 L 564 190 L 562 192 L 562 193 L 560 195 L 560 196 L 559 197 L 559 198 L 557 200 L 557 201 L 556 202 L 556 203 L 554 205 L 554 206 L 553 207 L 553 208 L 552 209 L 552 211 L 551 212 L 551 213 L 550 214 L 550 215 L 549 216 L 549 217 L 548 218 L 548 220 L 547 221 L 547 222 L 546 223 L 546 224 L 545 225 L 545 226 L 544 227 L 544 229 L 543 230 L 543 232 L 542 233 L 542 235 L 541 236 L 541 238 L 540 239 L 540 242 L 539 243 L 539 245 L 538 246 L 538 249 L 537 250 L 537 253 L 536 254 L 536 257 L 535 258 L 535 260 L 534 261 L 534 264 L 533 265 L 533 268 L 532 269 L 532 273 L 531 274 L 531 277 L 530 278 L 530 281 L 529 282 L 529 286 L 528 287 L 528 291 L 527 292 L 527 297 L 526 298 L 526 304 L 525 305 L 525 313 L 524 314 L 524 326 L 523 327 L 523 367 L 524 368 L 524 377 L 525 378 L 525 383 L 526 384 L 526 388 L 527 389 L 527 398 L 523 402 L 519 402 L 515 398 L 515 397 L 514 396 L 514 395 L 513 394 L 513 392 L 512 391 L 512 387 L 511 386 L 511 381 L 510 380 L 510 373 L 509 372 L 509 362 L 508 361 L 508 314 L 509 313 L 509 299 L 510 298 L 510 288 L 511 287 L 511 283 L 512 282 L 512 278 L 513 277 L 513 274 L 514 273 L 514 270 L 515 269 L 515 266 L 516 265 L 516 262 L 517 261 L 517 258 L 518 257 L 518 254 L 519 253 L 519 251 L 520 250 L 520 247 L 521 246 L 521 244 L 522 243 L 522 241 L 523 240 L 523 238 L 524 237 L 524 235 L 525 234 L 525 232 L 526 231 L 526 229 L 527 228 L 527 226 L 528 225 L 528 223 L 529 222 L 529 221 L 530 220 L 530 218 L 531 217 L 531 216 L 532 215 L 532 214 L 533 213 L 533 211 L 534 210 L 534 209 L 535 208 L 535 207 L 536 206 L 536 205 L 537 204 L 537 203 L 538 202 L 538 201 L 539 200 L 539 199 L 540 198 L 540 197 L 541 196 L 541 195 L 542 194 L 542 193 L 543 192 L 543 191 L 544 190 L 544 189 L 546 187 L 546 186 L 547 185 L 547 184 L 548 183 L 548 182 L 549 181 L 549 180 L 551 178 L 551 177 L 552 176 L 552 175 L 554 173 L 554 172 L 555 171 L 555 170 L 557 168 L 557 167 L 558 166 L 558 165 L 559 164 L 559 163 L 560 162 L 560 161 L 561 160 L 561 156 L 559 154 L 556 154 L 555 155 L 553 155 L 552 156 L 551 156 L 550 157 L 549 157 L 548 158 L 547 158 L 545 160 L 544 160 L 541 163 L 540 163 L 537 166 L 536 166 L 531 171 L 530 171 L 522 179 L 521 179 L 516 184 L 516 185 L 509 192 L 509 193 L 505 197 L 505 198 L 502 201 L 502 202 L 500 204 L 500 205 L 497 208 L 497 209 L 494 212 L 494 213 L 492 215 L 492 216 L 490 218 L 490 219 L 489 220 L 489 221 L 488 222 L 488 223 L 486 225 L 486 226 L 485 227 L 485 228 L 484 229 L 484 230 L 482 232 L 482 233 L 481 234 L 481 235 L 480 236 L 480 237 L 479 238 L 479 239 L 478 240 L 478 241 L 477 242 L 477 243 L 476 244 L 476 245 L 475 246 L 475 247 L 474 248 L 474 250 L 473 251 L 473 252 L 472 253 L 472 255 L 471 256 L 471 258 L 470 259 L 470 260 L 469 261 L 469 263 L 468 264 L 468 265 L 467 266 L 467 268 L 466 269 L 466 271 L 465 272 L 465 274 L 464 275 L 464 278 L 463 279 L 463 282 L 462 283 L 462 286 L 461 287 L 461 290 L 460 291 L 460 294 L 459 295 L 459 299 L 458 300 L 458 304 L 457 305 L 457 308 L 456 309 L 456 313 L 455 314 L 455 318 L 454 319 L 454 328 L 453 329 L 453 347 L 452 348 L 452 360 L 453 361 L 453 381 L 454 382 L 454 393 L 455 394 L 455 401 L 456 402 L 456 408 L 457 409 L 457 415 L 458 416 L 458 423 L 459 424 L 459 429 L 460 430 L 460 434 L 461 435 L 461 438 L 462 439 L 462 441 L 463 442 L 463 445 L 464 446 L 464 451 L 465 452 L 465 458 L 466 459 L 466 467 L 462 471 L 458 471 L 455 468 L 455 467 L 453 465 L 453 463 L 452 462 L 452 461 L 451 460 L 451 458 L 450 457 L 450 456 L 449 455 L 449 453 L 448 452 L 448 449 L 447 448 L 447 445 L 446 444 L 446 440 L 445 439 L 445 436 L 444 435 L 444 432 L 443 431 L 443 428 L 442 427 L 442 423 L 441 422 L 441 417 L 440 416 L 440 410 L 439 409 L 439 403 L 438 402 L 438 395 L 437 394 L 437 384 L 436 383 L 436 365 L 435 364 L 435 351 L 436 350 L 436 332 L 437 331 L 437 323 L 438 322 L 438 316 L 439 315 L 439 309 L 440 308 L 440 304 L 441 303 L 441 298 L 442 297 L 442 293 L 443 292 L 443 289 L 444 288 L 444 284 L 445 283 L 445 280 L 446 279 L 446 276 L 447 275 L 447 273 L 448 272 L 448 269 L 449 268 L 449 266 L 450 265 L 450 263 L 451 262 L 451 260 L 452 259 L 452 258 L 453 257 L 453 254 L 454 253 L 454 252 L 455 251 L 455 249 L 456 248 L 456 246 L 457 245 L 457 244 L 458 243 L 458 241 L 459 240 L 459 239 L 460 238 L 460 237 L 461 236 L 461 234 L 462 233 L 462 231 L 463 230 L 463 228 L 464 227 L 464 224 L 461 221 L 458 221 L 457 222 L 456 222 L 455 223 L 454 223 L 451 226 L 450 226 L 439 237 L 439 238 L 436 241 L 436 242 L 431 247 L 431 248 L 428 251 L 428 252 L 426 254 L 426 255 L 424 257 L 424 258 L 422 260 L 422 261 L 421 262 L 421 263 L 419 265 L 419 266 L 418 267 L 418 268 L 417 269 L 417 270 L 415 272 L 415 273 L 414 274 L 414 275 L 413 276 L 413 277 L 412 278 L 412 279 L 411 280 L 411 281 L 410 282 L 410 284 L 409 285 L 409 286 L 408 287 L 408 289 L 407 290 L 407 291 L 406 292 L 406 294 L 405 295 L 405 296 L 404 297 L 404 299 L 403 300 L 403 301 L 402 302 L 402 304 L 401 305 L 401 306 L 400 307 L 400 310 L 399 311 L 399 312 L 398 313 L 398 316 L 397 317 L 397 319 L 396 320 L 396 323 L 395 324 L 395 327 L 394 328 L 394 331 L 393 332 L 393 336 L 392 337 L 392 341 L 391 342 L 391 346 L 390 347 L 390 353 L 389 354 L 389 359 L 388 360 L 388 368 L 387 369 L 387 376 L 386 377 L 386 387 L 385 388 L 385 417 L 386 418 L 386 427 L 387 428 L 387 434 L 388 435 L 388 440 L 389 441 L 389 446 L 390 447 L 390 452 L 391 453 L 391 457 L 392 458 L 392 462 L 393 463 L 393 466 L 394 467 L 394 470 L 395 471 L 395 474 L 396 475 L 396 478 L 397 479 L 397 483 L 398 484 L 398 487 L 399 488 L 399 491 L 400 492 L 400 494 L 401 495 L 401 497 L 402 498 L 402 500 L 403 501 L 403 503 L 404 504 L 404 506 L 405 507 L 405 509 L 406 510 L 406 513 L 407 514 L 407 516 L 408 517 L 408 518 L 409 519 L 409 520 L 410 521 L 410 522 L 411 523 L 411 524 L 412 525 L 412 526 L 413 527 L 413 532 L 411 534 L 410 534 L 408 536 L 404 536 L 403 535 L 402 535 L 400 533 L 400 532 L 398 530 L 398 529 L 396 527 L 396 525 L 395 524 L 395 523 L 394 522 L 394 521 L 393 520 L 393 518 L 392 517 L 392 515 L 391 514 L 391 513 L 390 512 L 390 510 L 389 509 L 389 507 L 388 506 L 388 504 L 387 503 L 387 501 L 386 500 L 386 497 L 385 496 L 385 494 L 384 493 L 384 491 L 383 490 L 383 488 L 382 487 L 382 484 L 381 483 L 381 481 L 380 480 L 380 478 L 379 477 L 379 474 L 378 473 L 378 469 L 377 468 L 377 465 L 376 464 L 376 461 L 375 460 L 375 456 L 374 455 L 374 450 L 373 449 L 373 445 L 372 444 L 372 440 L 371 439 L 371 434 L 370 433 L 370 428 L 369 427 L 369 418 L 368 417 L 368 382 L 369 381 L 369 368 L 370 367 L 370 356 L 371 355 L 371 348 L 372 347 L 372 342 L 373 341 L 373 337 L 374 336 L 374 332 L 375 331 L 375 327 L 376 326 L 376 322 L 377 321 L 377 318 L 378 317 L 378 315 L 379 314 L 379 312 L 380 311 L 380 308 L 381 307 L 381 303 L 380 302 L 380 301 L 377 298 L 374 298 L 373 299 L 372 299 L 371 300 L 370 300 L 365 305 L 365 306 L 362 309 L 362 310 L 360 312 L 360 313 L 358 315 L 358 316 L 356 318 L 356 319 L 355 320 L 355 321 L 354 322 L 354 323 L 352 325 L 352 326 L 351 327 L 351 328 L 350 329 L 350 330 L 349 331 L 349 332 L 348 333 L 348 335 L 347 336 L 347 337 L 346 338 L 346 339 L 345 340 L 345 341 L 344 342 L 344 343 L 343 344 L 343 346 L 342 347 L 342 348 L 341 349 L 341 351 L 340 352 L 340 354 L 339 355 L 339 357 L 338 358 L 338 360 L 337 361 L 337 363 L 336 364 L 336 366 L 335 367 L 335 369 L 334 370 L 334 373 L 333 374 L 333 377 L 332 378 L 332 382 L 331 383 L 331 386 L 330 387 L 330 392 L 329 393 L 329 397 L 328 398 L 328 404 L 327 405 L 327 412 L 326 413 L 326 422 L 325 423 L 325 437 L 324 438 L 324 463 L 325 464 L 325 474 L 326 475 L 326 483 L 327 484 L 327 489 L 328 490 L 328 495 L 329 496 L 329 500 L 330 501 L 330 504 L 331 505 L 331 507 L 332 508 L 332 511 L 333 512 L 333 515 L 334 516 L 334 519 L 335 520 L 335 522 L 336 523 L 336 526 L 337 527 L 337 529 L 338 530 L 338 532 L 339 533 L 339 535 L 340 536 L 340 538 L 341 539 L 341 541 L 342 542 L 342 544 L 343 545 L 343 548 L 344 549 L 344 551 L 345 552 L 345 554 L 346 555 L 346 557 L 347 558 L 347 559 L 348 560 L 348 562 L 349 563 L 349 565 L 350 566 L 350 568 L 351 569 L 351 571 L 352 572 L 352 573 L 353 574 L 353 576 L 354 577 L 354 578 L 355 579 L 355 580 L 356 581 L 356 583 L 357 584 L 357 585 L 358 586 L 358 587 L 359 588 L 359 594 L 358 595 L 358 596 L 356 598 L 350 598 L 346 594 L 346 593 L 345 592 L 345 591 L 343 589 L 343 588 L 342 587 L 342 586 L 341 585 L 341 584 L 340 583 L 340 581 L 339 580 L 339 579 L 338 578 L 338 576 L 337 575 L 337 574 L 336 573 L 336 572 L 335 571 L 335 569 L 334 568 L 334 567 L 333 566 L 333 565 L 332 564 L 332 563 L 331 562 L 331 560 L 330 559 L 330 557 L 329 556 L 329 555 L 328 554 L 328 552 L 327 551 L 327 549 L 326 548 L 326 546 L 325 545 L 325 543 L 324 542 L 324 540 L 323 539 L 323 537 L 322 536 L 322 533 L 321 532 L 321 530 L 320 529 L 320 527 L 319 526 L 319 524 L 318 523 L 318 521 L 317 520 L 317 518 L 316 517 L 316 514 L 315 513 L 315 510 L 314 509 L 314 507 L 313 506 L 313 503 L 312 502 L 312 499 L 311 498 L 311 494 L 310 493 L 310 489 L 309 488 L 309 484 L 308 483 L 308 478 L 307 477 L 307 470 L 306 469 L 306 456 L 305 455 L 305 435 L 306 434 L 306 419 L 307 418 L 307 410 L 308 409 L 308 404 L 309 403 L 309 397 L 310 396 L 310 390 L 309 389 L 309 388 L 307 386 L 306 386 L 305 385 L 302 385 L 301 386 L 300 386 L 297 389 L 297 390 L 295 392 L 295 393 L 294 394 L 294 395 L 293 396 L 293 397 L 292 398 L 292 400 L 291 401 L 291 402 L 290 403 L 290 405 L 289 406 L 289 407 L 288 408 L 288 410 L 287 411 L 287 413 L 286 414 L 286 416 L 285 417 L 285 419 L 284 420 L 284 423 L 283 424 L 283 426 L 282 427 L 282 431 L 281 432 L 281 435 L 280 436 L 280 439 L 279 440 L 279 443 L 278 444 L 278 449 L 277 450 L 277 454 L 276 455 L 276 461 L 275 462 L 275 469 L 274 470 L 274 477 L 273 478 L 273 489 L 272 490 L 272 492 L 273 493 L 273 494 L 272 495 L 272 517 L 273 518 L 273 531 L 274 532 L 274 539 L 275 540 L 275 545 L 276 546 L 276 551 L 277 552 L 277 555 L 278 556 L 278 560 L 279 561 L 279 564 L 280 565 L 280 568 L 281 569 L 281 572 L 282 573 L 282 576 L 283 577 L 283 579 L 284 580 L 284 583 L 285 584 L 285 586 L 286 587 L 286 589 L 287 590 L 287 593 L 288 594 L 288 596 L 289 597 L 289 599 L 290 600 L 290 602 L 291 603 L 291 605 L 292 606 L 292 608 L 293 609 L 293 611 L 294 612 L 294 614 L 295 615 L 295 617 L 296 618 L 296 620 L 297 621 L 297 622 L 298 623 L 298 624 L 299 625 L 299 627 L 300 628 L 300 629 L 301 630 L 301 631 L 302 632 L 302 633 L 303 634 L 303 635 L 305 637 L 305 638 L 306 639 L 306 640 L 307 641 L 307 649 L 306 650 L 306 652 L 304 654 L 303 654 L 302 653 L 301 653 L 300 652 L 299 652 L 297 650 L 297 649 L 295 647 L 295 646 L 293 644 L 293 643 L 292 642 L 292 641 L 290 639 L 290 638 L 289 637 L 289 636 L 287 634 L 287 633 L 286 632 L 286 631 L 285 630 L 285 629 L 284 628 L 284 627 L 283 626 L 283 625 L 282 624 L 282 623 L 281 622 L 281 620 L 280 619 L 280 618 L 279 617 L 279 615 L 278 614 L 278 613 L 277 612 L 277 611 L 276 610 L 276 608 L 275 607 L 275 606 L 274 605 L 274 603 L 273 602 L 273 601 L 272 600 L 272 598 L 271 597 L 271 596 L 270 595 L 270 593 L 269 592 L 269 591 L 268 590 L 268 588 L 267 587 L 267 585 L 266 584 L 266 582 L 265 581 L 265 579 L 264 578 L 264 576 L 263 575 L 263 573 L 262 572 L 262 570 L 261 569 L 261 567 L 260 566 L 260 564 L 259 563 L 259 560 L 258 559 L 258 556 L 257 555 L 257 552 L 256 551 L 256 548 L 255 547 L 255 543 L 254 542 L 254 537 L 253 536 L 253 530 L 252 529 L 252 492 L 253 491 L 253 480 L 250 477 L 249 477 L 248 476 L 244 476 L 243 477 L 242 477 L 239 480 L 239 481 L 238 482 L 238 484 L 237 485 L 237 487 L 236 488 L 236 493 L 235 494 L 235 499 L 234 500 L 234 508 L 233 509 L 233 521 L 232 522 L 232 541 L 233 542 L 233 554 L 234 555 L 234 562 L 235 563 L 235 568 L 236 569 L 236 573 L 237 574 L 237 577 L 238 578 L 238 582 L 239 583 L 239 586 L 240 587 L 240 590 L 241 591 L 241 593 L 242 594 L 242 597 L 243 598 L 243 600 L 244 601 L 244 603 L 245 604 L 245 605 L 246 606 L 246 608 L 247 609 L 247 611 L 248 612 L 248 614 L 249 615 L 249 616 L 250 617 L 250 618 L 251 619 L 251 621 L 252 622 L 252 623 L 253 624 L 253 625 L 254 626 L 254 628 L 255 629 L 255 630 L 256 631 L 256 632 L 257 633 L 257 634 L 258 635 L 258 637 L 259 638 L 259 639 L 260 640 L 260 641 L 261 642 L 261 643 L 262 644 L 262 645 L 263 646 L 263 647 L 264 648 L 264 649 L 265 650 L 265 651 L 266 652 L 266 653 L 267 654 L 267 655 L 268 656 L 268 657 L 269 658 L 269 659 L 270 660 L 270 662 L 271 663 L 271 664 L 272 665 L 272 666 L 273 667 L 273 668 L 274 669 L 274 670 L 275 671 L 275 672 L 276 673 L 276 675 L 277 676 L 277 677 L 278 678 L 278 679 L 279 680 L 279 682 L 280 683 L 280 685 L 281 686 L 281 688 L 282 689 L 282 696 L 279 699 L 277 699 L 272 694 L 272 693 L 271 692 L 271 691 L 270 690 L 270 689 L 269 688 L 269 687 L 268 686 L 268 685 L 267 684 L 267 683 L 266 682 L 266 681 L 265 680 L 265 679 L 263 677 L 263 676 L 262 675 L 262 674 L 260 672 L 260 671 L 259 670 L 259 669 L 257 667 L 257 666 L 255 664 L 255 663 L 253 661 L 253 660 L 251 658 L 251 657 L 249 655 L 249 654 L 247 652 L 247 651 L 245 649 L 245 648 L 243 646 L 243 645 L 241 643 L 241 642 L 239 640 L 239 639 L 237 637 L 237 636 L 236 635 L 236 634 L 234 632 L 234 631 L 232 629 L 232 628 L 231 627 L 231 626 L 230 625 L 230 624 L 228 622 L 228 621 L 227 620 L 227 618 L 226 617 L 226 616 L 225 615 L 225 614 L 224 613 L 224 611 L 223 610 L 223 608 L 222 607 L 222 605 L 221 604 L 221 602 L 220 601 L 220 598 L 219 597 L 219 594 L 218 593 L 218 589 L 217 588 L 217 584 L 216 583 L 216 582 L 215 581 L 215 580 L 212 577 L 210 577 L 209 576 L 208 576 L 207 577 L 206 577 L 205 578 L 204 578 L 203 579 L 203 580 L 202 581 L 202 583 L 201 584 L 201 589 L 202 590 L 202 598 L 203 599 L 203 604 L 204 605 L 204 608 L 205 609 L 205 612 L 206 613 L 206 615 L 207 616 L 207 619 L 208 620 L 208 622 L 209 623 L 209 625 L 210 626 L 210 628 L 211 629 L 211 630 L 212 631 L 212 633 L 213 634 L 213 635 L 214 636 L 214 638 L 215 639 L 215 640 L 216 641 L 216 642 L 217 643 L 217 644 L 218 645 L 218 646 L 219 647 L 219 648 L 220 649 L 220 650 L 221 651 L 221 652 L 222 653 L 222 654 L 223 655 L 223 656 L 224 657 L 224 658 L 226 660 L 226 661 L 227 662 L 227 663 L 229 665 L 229 666 L 231 668 L 231 669 L 232 670 L 232 671 L 234 673 L 234 674 L 236 676 L 236 677 L 238 679 L 238 680 L 239 681 L 239 682 L 241 684 L 241 685 L 242 686 L 242 687 L 243 688 L 243 689 L 245 691 L 245 692 L 246 693 L 246 694 L 247 695 L 247 696 L 248 697 L 248 698 L 249 699 L 249 700 L 250 701 L 250 702 L 251 703 L 251 704 L 252 705 L 252 707 L 253 708 L 253 709 L 254 710 L 254 712 L 255 713 L 255 715 L 256 716 L 256 718 L 257 719 L 257 721 L 258 722 L 258 724 L 259 725 L 259 728 L 260 729 L 260 735 L 261 736 L 261 763 L 262 764 L 263 764 L 264 765 L 262 767 L 262 768 L 261 769 L 261 770 L 258 773 L 258 774 L 256 776 L 256 777 L 254 779 L 254 780 L 252 782 L 252 783 L 250 785 L 250 786 L 247 789 L 247 790 L 245 792 L 245 793 L 242 796 L 242 797 L 239 800 L 239 801 L 238 802 L 238 803 L 236 805 L 236 806 L 234 808 L 234 809 L 232 811 L 232 812 L 230 814 L 230 815 L 228 817 L 228 818 L 226 820 L 226 821 L 224 823 L 224 824 L 222 826 L 222 827 L 221 828 L 221 829 L 219 831 L 219 832 L 217 834 L 217 835 L 215 837 L 215 838 L 214 839 L 214 840 L 212 842 L 212 843 L 211 844 L 211 845 L 210 846 L 210 847 L 208 849 L 208 850 L 207 851 L 207 852 L 206 853 L 206 854 L 204 856 L 204 857 L 203 858 L 203 859 L 202 860 L 202 861 L 200 863 L 200 864 L 199 865 L 199 866 L 198 867 L 198 868 L 196 870 L 196 871 L 195 872 L 195 873 L 194 874 L 194 875 L 193 876 L 193 877 L 192 878 L 192 879 L 191 880 L 191 881 L 190 882 L 190 884 L 188 886 L 188 888 L 187 889 L 187 890 L 186 891 L 186 892 L 185 893 L 185 895 L 184 896 L 184 898 L 183 899 L 183 900 L 182 901 L 182 903 L 181 904 L 181 906 L 180 907 L 180 918 L 181 919 L 181 920 L 182 921 L 182 922 L 184 924 L 184 925 L 185 925 L 187 927 L 188 927 L 189 928 L 191 928 L 192 929 L 201 929 L 202 928 L 204 928 L 205 927 L 206 927 L 207 926 L 208 926 L 211 923 L 212 923 L 213 922 L 213 921 L 216 918 L 216 917 L 217 916 L 217 915 L 218 914 L 218 913 L 219 912 L 219 911 L 220 910 L 220 909 L 221 908 L 221 907 L 222 906 L 222 904 L 223 903 L 223 901 L 224 900 L 224 898 L 225 897 L 225 895 L 226 894 L 226 892 L 227 891 L 227 890 L 228 889 L 228 887 L 229 886 L 229 884 L 230 883 L 230 881 L 231 880 L 231 878 L 232 877 L 232 875 L 233 874 L 233 873 L 234 872 L 234 870 L 235 869 L 235 868 L 236 867 L 236 865 L 237 864 L 237 863 L 238 862 L 238 860 L 239 859 L 239 857 L 240 856 L 240 855 L 241 854 L 241 852 L 242 851 L 242 850 L 243 849 L 243 848 L 244 847 L 244 846 L 245 845 L 245 843 L 246 842 L 246 841 L 247 840 L 247 839 L 248 838 L 248 837 L 249 836 L 249 835 L 250 834 L 250 833 L 251 832 L 251 831 L 252 830 L 252 829 L 253 828 L 253 827 L 254 826 L 254 825 L 255 824 L 255 823 L 256 822 L 256 821 L 257 820 L 257 819 L 259 817 L 259 816 L 260 815 L 260 814 L 262 812 L 262 811 L 263 810 L 263 809 L 265 807 L 265 806 L 266 805 L 266 804 L 267 803 L 267 802 L 269 800 L 269 799 L 272 796 L 272 795 L 274 793 L 274 792 L 278 788 L 278 787 L 287 778 L 288 778 L 290 776 L 291 776 L 292 775 L 293 775 L 295 773 L 297 773 L 298 772 L 299 772 L 300 771 L 301 771 L 302 770 L 304 770 L 305 769 L 307 769 L 308 768 L 310 768 L 311 767 L 315 767 L 316 766 L 321 766 L 322 765 L 328 765 L 329 764 L 347 764 L 348 765 L 355 765 L 356 766 L 361 766 L 362 767 L 366 767 L 367 768 L 371 768 L 372 769 L 375 769 L 376 770 L 379 770 L 380 771 L 384 771 L 385 772 L 388 772 L 389 773 L 392 773 L 393 774 L 397 774 L 398 775 L 402 775 L 403 776 L 408 776 L 409 777 L 414 777 L 415 778 L 421 778 L 422 777 L 424 777 L 425 776 L 426 776 L 426 775 L 427 774 L 427 769 L 425 767 L 424 767 L 423 766 L 421 766 L 420 765 L 418 765 L 417 764 L 414 764 L 413 763 L 410 763 L 409 762 L 407 762 L 406 761 L 405 761 L 404 760 L 402 760 L 401 759 L 399 759 L 398 758 L 397 758 L 396 757 L 395 757 L 394 756 L 392 756 L 391 755 L 390 755 L 389 754 L 388 754 L 387 753 L 385 753 L 384 752 L 383 752 L 382 751 L 380 751 L 379 750 L 377 750 L 376 749 L 375 749 L 374 748 L 372 748 L 371 747 L 369 747 L 368 746 L 365 746 L 364 745 L 361 745 L 360 744 L 357 744 L 356 743 L 352 743 L 351 742 L 347 742 L 346 741 L 342 741 L 341 740 L 332 740 L 331 739 L 328 739 L 327 738 L 327 733 L 330 730 L 353 730 L 354 731 L 362 731 L 363 732 L 368 732 L 369 733 L 374 733 L 375 734 L 379 734 L 380 735 L 384 735 L 385 736 L 389 736 L 390 737 L 395 737 L 396 738 L 400 738 L 401 739 L 406 739 L 407 740 L 412 740 L 413 741 L 419 741 L 420 742 L 426 742 L 427 743 L 435 743 L 436 744 L 470 744 L 471 743 L 482 743 L 483 742 L 491 742 L 492 741 L 499 741 L 500 740 L 504 740 L 505 739 L 507 739 L 511 735 L 511 731 L 510 730 L 510 729 L 508 727 L 507 727 L 506 726 L 494 726 L 493 725 L 482 725 L 481 724 L 471 724 L 470 723 L 462 723 L 461 722 L 454 722 L 453 721 L 446 721 L 445 720 L 438 720 L 437 719 L 432 719 L 431 718 L 425 718 L 424 717 L 420 717 L 419 716 L 416 716 L 415 715 L 413 715 L 412 714 L 409 714 L 408 713 L 406 713 L 405 712 L 402 712 L 401 711 L 399 711 L 398 710 L 395 710 L 394 709 L 392 709 L 391 708 L 388 708 L 387 707 L 385 707 L 384 706 L 381 706 L 380 705 L 378 705 L 377 704 L 375 704 L 374 703 L 372 703 L 371 702 L 369 702 L 368 701 L 367 701 L 366 700 L 364 700 L 363 699 L 362 699 L 361 698 L 360 698 L 357 695 L 357 689 L 359 687 L 361 687 L 362 688 L 367 688 L 368 689 L 371 689 L 372 690 L 375 690 L 376 691 L 380 691 L 381 692 L 383 692 L 384 693 L 387 693 L 388 694 L 391 694 L 392 695 L 395 695 L 396 696 L 399 696 L 400 697 L 404 697 L 405 698 L 409 698 L 410 699 L 415 699 L 416 700 L 419 700 L 420 701 L 425 701 L 426 702 L 430 702 L 431 703 L 438 703 L 439 704 L 467 704 L 468 705 L 491 705 L 492 704 L 506 704 L 507 703 L 512 703 L 513 702 L 519 702 L 520 701 L 525 701 L 526 700 L 531 700 L 532 699 L 538 699 L 539 698 L 543 698 L 544 697 L 548 697 L 549 696 L 553 696 L 554 695 L 557 695 L 558 694 L 560 694 L 561 693 L 563 693 L 564 692 L 566 692 L 567 691 L 568 691 L 569 690 L 570 690 L 571 689 L 573 689 L 574 688 L 577 688 L 578 687 L 579 687 L 580 686 L 582 686 L 583 685 L 585 685 L 586 684 L 587 684 L 588 683 L 589 683 L 590 682 L 592 682 L 593 681 L 594 681 L 595 680 L 596 680 L 599 677 L 600 677 L 601 676 L 601 675 L 603 673 L 603 672 L 604 671 L 604 669 L 603 668 L 603 667 L 602 666 L 602 665 L 601 665 L 600 664 L 591 664 L 590 665 L 587 665 L 586 666 L 583 666 L 582 667 L 579 667 L 578 668 L 574 668 L 573 669 L 568 669 L 567 670 L 560 670 L 559 671 L 548 671 L 547 672 L 498 672 L 497 671 L 487 671 L 486 670 L 480 670 L 479 669 L 474 669 L 473 668 L 469 668 L 468 667 L 465 667 L 464 666 L 461 666 L 460 665 L 457 665 L 456 664 L 453 664 L 452 663 L 450 663 L 449 662 L 446 662 L 445 661 L 443 661 L 442 660 L 440 660 L 439 659 L 437 659 L 436 658 L 434 658 L 433 657 L 431 657 L 430 656 L 428 656 L 427 655 L 426 655 L 425 654 L 423 654 L 422 653 L 420 653 L 419 652 L 418 652 L 417 651 L 415 651 L 414 650 L 412 650 L 411 649 L 410 649 L 409 648 L 408 648 L 407 647 L 406 647 L 404 645 L 403 645 L 400 642 L 400 641 L 399 640 L 399 636 L 400 635 L 400 634 L 403 631 L 404 631 L 405 632 L 408 632 L 409 633 L 411 633 L 412 634 L 413 634 L 414 635 L 416 635 L 417 636 L 418 636 L 419 637 L 421 637 L 422 638 L 424 638 L 425 639 L 428 639 L 429 640 L 431 640 L 432 641 L 435 641 L 436 642 L 438 642 L 439 643 L 442 643 L 443 644 L 445 644 L 446 645 L 449 645 L 450 646 L 453 646 L 454 647 L 457 647 L 458 648 L 461 648 L 462 649 L 467 649 L 468 650 L 475 650 L 476 651 L 485 651 L 486 652 L 496 652 L 497 653 L 513 653 L 514 652 L 540 652 L 541 651 L 549 651 L 550 650 L 555 650 L 556 649 L 560 649 L 561 648 L 565 648 L 566 647 L 569 647 L 570 646 L 573 646 L 574 645 L 577 645 L 578 644 L 582 644 L 583 643 L 586 643 L 587 642 L 590 642 L 591 641 L 594 641 L 595 640 L 598 640 L 599 639 L 601 639 L 602 638 L 604 638 L 605 637 L 607 637 L 608 636 L 610 636 L 611 635 L 612 635 L 613 634 L 615 634 L 616 633 L 618 633 L 619 632 L 620 632 L 621 631 L 623 631 L 624 630 L 625 630 L 626 629 L 627 629 L 628 628 L 629 628 L 630 627 L 631 627 L 632 626 L 633 626 L 634 625 L 635 625 L 636 624 L 637 624 L 638 623 L 639 623 L 640 622 L 641 622 L 642 621 L 643 621 L 645 619 L 646 619 L 647 618 L 648 618 L 650 616 L 651 616 L 653 614 L 654 614 L 656 612 L 657 612 L 659 610 L 660 610 L 662 608 L 663 608 L 667 604 L 668 604 L 675 597 L 675 596 L 676 595 L 676 594 L 677 593 L 677 590 L 676 589 L 676 588 L 674 586 L 673 586 L 672 585 L 668 585 L 667 586 L 665 586 L 664 587 L 663 587 L 662 588 L 660 588 L 659 589 L 658 589 L 657 590 L 655 590 L 654 591 L 652 591 L 651 592 L 649 592 L 648 593 L 645 593 L 644 594 L 641 594 L 640 595 L 637 595 L 636 596 L 633 596 L 632 597 L 628 597 L 627 598 L 623 598 L 622 599 L 618 599 L 617 600 L 612 600 L 611 601 L 608 601 L 607 602 L 602 602 L 601 603 L 597 603 L 596 604 L 590 604 L 589 605 L 584 605 L 583 606 L 576 606 L 575 607 L 536 607 L 535 606 L 528 606 L 527 605 L 522 605 L 521 604 L 516 604 L 515 603 L 510 603 L 509 602 L 504 602 L 503 601 L 498 601 L 497 600 L 492 600 L 491 599 L 488 599 L 487 598 L 484 598 L 483 597 L 480 597 L 479 596 L 476 596 L 475 595 L 472 595 L 471 594 L 469 594 L 468 593 L 466 593 L 465 592 L 464 592 L 463 591 L 461 591 L 460 590 L 459 590 L 458 589 L 457 589 L 456 588 L 454 588 L 453 587 L 452 587 L 451 586 L 450 586 L 449 585 L 448 585 L 444 581 L 444 576 L 445 575 L 445 574 L 446 573 L 452 573 L 453 574 L 455 574 L 456 575 L 457 575 L 458 576 L 460 576 L 461 577 L 463 577 L 464 578 L 467 578 L 468 579 L 472 579 L 473 580 L 477 580 L 478 581 L 483 581 L 484 582 L 491 582 L 492 583 L 504 583 L 505 584 L 513 584 L 514 585 L 520 585 L 521 586 L 527 586 L 528 587 L 538 587 L 539 588 L 564 588 L 565 587 L 578 587 L 579 586 L 586 586 L 587 585 L 591 585 L 592 584 L 597 584 L 598 583 L 602 583 L 603 582 L 607 582 L 608 581 L 612 581 L 613 580 L 617 580 L 618 579 L 621 579 L 622 578 L 625 578 L 626 577 L 628 577 L 629 576 L 631 576 L 632 575 L 634 575 L 635 574 L 637 574 L 638 573 L 640 573 L 641 572 L 643 572 L 644 571 L 646 571 L 647 570 L 649 570 L 650 569 L 651 569 L 652 568 L 654 568 L 655 567 L 656 567 L 657 566 L 658 566 L 659 565 L 660 565 L 661 564 L 663 564 L 664 563 L 665 563 L 666 562 L 667 562 L 668 561 L 669 561 L 670 560 L 672 560 L 673 559 L 674 559 L 676 557 L 677 557 L 678 556 L 679 556 L 680 555 L 681 555 L 683 553 L 684 553 L 685 552 L 686 552 L 688 550 L 689 550 L 690 549 L 691 549 L 693 547 L 694 547 L 696 545 L 697 545 L 699 543 L 700 543 L 702 541 L 703 541 L 707 537 L 708 537 L 711 534 L 712 534 L 719 527 L 720 527 L 744 503 L 744 502 L 746 500 L 746 499 L 748 497 L 748 495 L 749 494 L 749 491 L 748 490 L 748 489 L 746 487 L 740 487 L 739 488 L 737 488 L 735 490 L 734 490 L 732 492 L 731 492 L 729 494 L 728 494 L 726 496 L 725 496 L 723 498 L 722 498 L 721 499 L 720 499 L 719 500 L 718 500 L 716 502 L 715 502 L 714 503 L 713 503 L 712 504 L 711 504 L 710 505 L 709 505 L 708 506 L 707 506 L 706 507 L 705 507 L 704 508 L 703 508 L 702 509 L 701 509 L 700 510 L 699 510 L 698 511 L 696 511 L 695 512 L 694 512 L 693 513 L 692 513 L 691 514 L 689 514 L 688 515 L 687 515 L 686 516 L 684 516 L 683 517 L 682 517 L 681 518 L 680 518 L 679 519 L 677 519 L 676 520 L 674 520 L 673 521 L 672 521 L 671 522 L 669 522 L 668 523 L 665 523 L 664 524 L 661 524 L 660 525 L 657 525 L 656 526 L 653 526 L 652 527 L 649 527 L 648 528 L 645 528 L 644 529 L 641 529 L 640 530 L 635 530 L 634 531 L 628 531 L 627 532 L 619 532 L 618 533 L 605 533 L 604 534 L 584 534 L 583 533 L 575 533 L 574 532 L 566 532 L 565 531 L 557 531 L 556 530 L 546 530 L 545 529 L 536 529 L 535 528 L 526 528 L 525 527 L 520 527 L 519 526 L 515 526 L 514 525 L 511 525 L 510 524 L 506 524 L 505 523 L 496 523 L 493 520 L 493 517 L 494 516 L 494 515 L 496 513 L 497 513 L 498 512 L 500 512 L 501 511 L 503 511 L 504 510 L 505 510 L 506 509 L 521 509 L 522 510 L 531 510 L 532 511 L 542 511 L 543 512 L 552 512 L 553 513 L 563 513 L 564 514 L 579 514 L 580 515 L 619 515 L 620 514 L 628 514 L 629 513 L 635 513 L 636 512 L 641 512 L 642 511 L 645 511 L 646 510 L 649 510 L 650 509 L 653 509 L 654 508 L 657 508 L 658 507 L 661 507 L 662 506 L 664 506 L 665 505 L 667 505 L 668 504 L 669 504 L 670 503 L 672 503 L 673 502 L 674 502 L 675 501 L 676 501 L 677 500 L 678 500 L 679 499 L 680 499 L 681 498 L 682 498 L 683 497 L 685 497 L 686 496 L 687 496 L 688 495 L 689 495 L 690 494 L 691 494 L 692 493 L 693 493 L 695 491 L 696 491 L 697 490 L 698 490 L 700 488 L 701 488 L 702 487 L 703 487 L 704 486 L 705 486 L 706 485 L 707 485 L 710 482 L 711 482 L 712 481 L 713 481 L 715 479 L 716 479 L 718 477 L 719 477 L 721 475 L 722 475 L 724 473 L 725 473 L 728 470 L 729 470 L 731 468 L 732 468 L 734 466 L 735 466 L 737 464 L 738 464 L 741 461 L 742 461 L 747 456 L 748 456 L 757 447 L 758 447 L 764 441 L 764 440 L 774 430 L 774 429 L 778 425 L 778 424 L 782 420 L 782 419 L 785 416 L 785 415 L 787 413 L 787 412 L 790 409 L 790 408 L 792 406 L 792 405 L 793 404 L 793 403 L 795 401 L 795 400 L 797 398 L 797 397 L 798 396 L 798 395 L 800 393 L 800 392 L 801 391 L 801 389 L 802 388 L 802 382 L 800 380 L 799 380 L 798 379 L 795 379 L 794 380 L 793 380 L 792 381 L 791 381 L 788 384 L 787 384 L 781 390 L 780 390 L 776 394 L 775 394 L 772 397 L 771 397 L 768 400 L 767 400 L 763 404 L 762 404 L 760 406 L 759 406 L 757 408 L 756 408 L 755 409 L 754 409 L 752 411 L 751 411 L 750 412 L 749 412 L 747 414 L 746 414 L 745 415 L 744 415 L 742 417 L 741 417 L 740 418 L 739 418 L 738 419 L 737 419 L 735 421 L 734 421 L 733 422 L 732 422 L 731 423 L 730 423 L 729 424 L 728 424 L 727 425 L 726 425 L 725 426 L 723 426 L 722 427 L 721 427 L 720 428 L 719 428 L 718 429 L 717 429 L 716 430 L 715 430 L 714 431 L 713 431 L 712 432 L 710 432 L 709 433 L 708 433 L 707 434 L 705 434 L 704 435 L 703 435 L 702 436 L 700 436 L 699 437 L 697 437 L 696 438 L 695 438 L 694 439 L 692 439 L 691 440 L 689 440 L 688 441 L 686 441 L 685 442 L 683 442 L 682 443 L 679 443 L 678 444 L 675 444 L 674 445 L 672 445 L 671 446 L 667 446 L 666 447 L 663 447 L 662 448 L 658 448 L 657 449 L 653 449 L 652 450 L 647 450 L 646 451 L 641 451 L 640 452 L 632 452 L 631 453 L 622 453 L 621 454 L 579 454 L 578 453 L 570 453 L 569 452 L 563 452 L 562 451 L 560 451 L 559 450 L 558 450 L 556 448 L 556 447 L 555 446 L 555 445 L 556 444 L 556 441 L 558 439 L 559 439 L 560 438 L 568 438 L 569 439 L 594 439 L 595 438 L 617 438 L 618 437 L 629 437 L 630 436 L 637 436 L 638 435 L 643 435 L 644 434 L 649 434 L 650 433 L 655 433 L 656 432 L 660 432 L 661 431 L 665 431 L 666 430 L 669 430 L 670 429 L 673 429 L 674 428 L 677 428 L 678 427 L 680 427 L 681 426 L 683 426 L 684 425 L 687 425 L 688 424 L 690 424 L 691 423 L 693 423 L 694 422 L 695 422 L 696 421 L 697 421 L 698 420 L 700 420 L 701 419 L 702 419 L 703 418 L 704 418 L 705 417 L 706 417 L 707 416 L 708 416 L 709 415 L 710 415 L 711 414 L 712 414 L 713 413 L 714 413 L 715 412 L 716 412 L 717 411 L 718 411 L 719 410 L 720 410 L 721 409 L 722 409 L 723 408 L 724 408 L 725 407 L 726 407 L 728 405 L 729 405 L 731 403 L 732 403 L 733 402 L 734 402 L 735 401 L 736 401 L 738 399 L 739 399 L 740 398 L 741 398 L 743 396 L 744 396 L 746 394 L 747 394 L 749 392 L 750 392 L 752 390 L 753 390 L 755 388 L 756 388 L 759 385 L 760 385 L 762 383 L 763 383 L 767 379 L 768 379 L 773 374 L 774 374 L 799 349 L 799 348 L 803 344 L 803 343 L 808 338 L 808 337 L 811 334 L 811 333 L 813 331 L 813 330 L 816 327 L 816 326 L 817 325 L 817 324 L 819 322 L 819 321 L 820 320 L 820 319 L 821 318 L 821 317 L 822 316 L 822 315 L 823 314 L 823 313 L 824 312 L 824 311 L 825 310 L 825 308 L 826 307 L 826 306 L 827 305 L 827 304 L 828 303 L 828 302 L 829 301 L 829 299 L 830 298 L 830 296 L 831 295 L 831 294 L 832 293 L 832 291 L 833 290 L 833 288 L 834 287 L 834 285 L 835 284 L 835 282 L 836 281 L 836 278 L 837 277 L 837 274 L 838 273 L 838 266 L 836 264 L 835 264 L 834 263 L 833 264 L 831 264 L 826 269 L 826 270 L 819 277 L 819 278 L 802 295 L 801 295 L 794 302 L 793 302 L 787 308 L 786 308 L 783 311 L 782 311 L 779 314 L 778 314 L 776 316 L 775 316 L 772 319 L 771 319 L 769 321 L 768 321 L 766 323 L 765 323 L 762 326 L 761 326 L 760 327 L 759 327 L 757 329 L 756 329 L 755 330 L 754 330 L 752 332 L 751 332 L 750 333 L 749 333 L 748 334 L 747 334 L 746 335 L 745 335 L 743 337 L 742 337 L 741 338 L 740 338 L 739 339 L 738 339 L 737 340 L 736 340 L 735 341 L 734 341 L 733 342 L 732 342 L 730 344 L 728 344 L 726 346 L 724 346 L 723 347 L 722 347 L 721 348 L 720 348 L 719 349 L 718 349 L 717 350 L 716 350 L 715 351 L 714 351 L 713 352 L 711 352 L 710 353 L 708 353 L 707 354 L 706 354 L 705 355 L 703 355 L 702 356 L 700 356 L 699 357 L 698 357 L 697 358 L 695 358 L 694 359 L 692 359 L 691 360 L 688 360 L 687 361 L 685 361 L 684 362 L 681 362 L 680 363 L 677 363 L 676 364 L 674 364 L 673 365 L 670 365 L 669 366 L 665 366 L 664 367 L 660 367 L 659 368 L 651 368 L 650 369 L 644 369 L 643 370 L 626 370 L 623 367 L 623 366 L 622 365 L 622 363 L 626 359 L 627 359 L 628 358 L 630 358 L 631 357 L 634 357 L 635 356 L 637 356 L 638 355 L 641 355 L 642 354 L 646 354 L 647 353 L 653 353 L 654 352 L 660 352 L 661 351 L 664 351 L 665 350 L 667 350 L 668 349 L 670 349 L 671 348 L 674 348 L 675 347 L 677 347 L 678 346 L 680 346 L 681 345 L 684 345 L 685 344 L 687 344 L 688 343 L 690 343 L 691 342 L 693 342 L 694 341 L 696 341 L 697 340 L 699 340 L 700 339 L 701 339 L 702 338 L 704 338 L 705 337 L 707 337 L 708 336 L 709 336 L 710 335 L 712 335 L 713 334 L 714 334 L 715 333 L 716 333 L 717 332 L 719 332 L 720 331 L 721 331 L 722 330 L 723 330 L 724 329 L 725 329 L 726 328 L 727 328 L 728 327 L 729 327 L 730 326 L 731 326 L 732 325 L 733 325 L 734 324 L 735 324 L 736 323 L 737 323 L 738 322 L 739 322 L 740 321 L 741 321 L 743 319 L 744 319 L 745 318 L 746 318 L 748 316 L 749 316 L 750 315 L 751 315 L 752 314 L 753 314 L 755 312 L 756 312 L 757 311 L 758 311 L 760 309 L 761 309 L 763 307 L 764 307 L 767 304 L 768 304 L 770 302 L 771 302 L 775 298 L 776 298 L 779 295 L 780 295 L 782 293 L 783 293 L 791 285 L 792 285 L 798 279 L 799 279 L 810 268 L 810 267 L 818 259 L 818 258 L 822 254 L 822 253 L 825 250 L 825 249 L 828 246 L 828 245 L 830 243 L 830 242 L 831 241 L 831 240 L 833 238 L 833 237 L 834 236 L 834 234 L 835 233 L 835 232 L 836 231 L 836 229 L 837 228 L 837 226 L 838 225 L 838 223 L 839 222 L 839 219 L 840 218 L 840 216 L 841 215 L 841 211 L 842 210 L 842 206 L 843 205 L 843 201 L 844 200 L 844 191 L 845 190 L 845 179 L 844 178 L 844 166 L 843 165 L 843 160 L 842 159 L 842 155 L 841 154 L 841 151 L 840 150 L 840 148 L 839 147 L 839 145 L 838 144 L 838 143 L 837 142 L 837 140 L 836 139 L 836 138 L 835 137 L 835 136 L 833 134 L 833 133 L 832 132 L 832 131 L 830 129 L 830 128 L 828 126 L 828 125 L 824 121 L 824 120 L 820 116 L 819 116 L 815 112 L 814 112 L 812 110 L 811 110 L 810 109 L 809 109 L 808 108 L 807 108 L 806 107 L 805 107 L 804 106 L 802 106 L 801 105 L 800 105 L 799 104 L 797 104 L 796 103 L 794 103 L 793 102 L 791 102 L 790 101 L 787 101 L 786 100 L 783 100 L 782 99 L 777 99 L 776 98 L 767 98 L 766 97 Z" fill="black" /></svg>
